HIERARCHY
ROOT _no_name_
{
	OFFSET 0 0 0
	CHANNELS 6 Xposition Yposition Zposition Zrotation Xrotation Yrotation
	JOINT Main__Hips_
	{
		OFFSET -0.70544 0.210961 0.735131
		CHANNELS 3 Zrotation Xrotation Yrotation
		JOINT LeftUpperLeg
		{
			OFFSET 0.05 0.0939693 0.034202
			CHANNELS 3 Zrotation Xrotation Yrotation
			JOINT LeftLowerLeg
			{
				OFFSET -0.100504 -0.193113 0.360482
				CHANNELS 3 Zrotation Xrotation Yrotation
				JOINT LeftFoot
				{
					OFFSET 0.448319 0.0416229 -0.0270305
					CHANNELS 3 Zrotation Xrotation Yrotation
					JOINT LeftToes
					{
						OFFSET 0.0978653 -0.0363168 0.0789206
						CHANNELS 3 Zrotation Xrotation Yrotation
						End Site
						{
							OFFSET 0 0 0
						}
					}
				}
			}
		}
		JOINT RightUpperLeg
		{
			OFFSET 0.05 -0.0939693 -0.034202
			CHANNELS 3 Zrotation Xrotation Yrotation
			JOINT RightLowerLeg
			{
				OFFSET 0.419986 -0.0212477 0.0293518
				CHANNELS 3 Zrotation Xrotation Yrotation
				JOINT RightFoot
				{
					OFFSET -0.105716 -0.0137819 -0.438277
					CHANNELS 3 Zrotation Xrotation Yrotation
					JOINT RightToes
					{
						OFFSET 0.0520804 -0.00732905 -0.119829
						CHANNELS 3 Zrotation Xrotation Yrotation
						End Site
						{
							OFFSET 0 0 0
						}
					}
				}
			}
		}
		JOINT LowerBack
		{
			OFFSET -0.09 -1.49012e-008 0
			CHANNELS 3 Zrotation Xrotation Yrotation
			JOINT Back
			{
				OFFSET -0.137873 -0.0062921 0.0234824
				CHANNELS 3 Zrotation Xrotation Yrotation
				JOINT Chest
				{
					OFFSET -0.137888 -0.0200915 0.113944
					CHANNELS 3 Zrotation Xrotation Yrotation
					JOINT Neck
					{
						OFFSET -0.103998 0.0807539 0.165807
						CHANNELS 3 Zrotation Xrotation Yrotation
						End Site
						{
							OFFSET 0 0 0
						}
					}
					JOINT LeftUpperArm
					{
						OFFSET 0.00133169 0.22521 0.0377961
						CHANNELS 3 Zrotation Xrotation Yrotation
						JOINT LeftLowerArm
						{
							OFFSET 0.191878 -0.269659 0.0794771
							CHANNELS 3 Zrotation Xrotation Yrotation
							JOINT LeftHand
							{
								OFFSET 0.010592 -0.0342439 0.222408
								CHANNELS 3 Zrotation Xrotation Yrotation
								JOINT LTumb1
								{
									OFFSET -0.0522499 -0.00123463 0.0536096
									CHANNELS 3 Zrotation Xrotation Yrotation
									JOINT LTumb2
									{
										OFFSET -0.00924724 -0.0245445 0.029804
										CHANNELS 3 Zrotation Xrotation Yrotation
										End Site
										{
											OFFSET 0 0 0
										}
									}
								}
								JOINT LForeFinger1
								{
									OFFSET -0.0345331 -0.0230855 0.112225
									CHANNELS 3 Zrotation Xrotation Yrotation
									JOINT LForeFinger2
									{
										OFFSET -0.00897616 -0.0252004 0.0149903
										CHANNELS 3 Zrotation Xrotation Yrotation
										JOINT LForeFinger3
										{
											OFFSET -0.00184596 -0.0222116 0.0105497
											CHANNELS 3 Zrotation Xrotation Yrotation
											End Site
											{
												OFFSET 0 0 0
											}
										}
									}
								}
								JOINT LMiddleFinger1
								{
									OFFSET -0.00744128 -0.0252939 0.117335
									CHANNELS 3 Zrotation Xrotation Yrotation
									JOINT LMiddleFinger2
									{
										OFFSET -0.0119251 -0.0257949 0.0164274
										CHANNELS 3 Zrotation Xrotation Yrotation
										JOINT LMiddleFinger3
										{
											OFFSET -0.00512987 -0.0255577 0.0116551
											CHANNELS 3 Zrotation Xrotation Yrotation
											End Site
											{
												OFFSET 0 0 0
											}
										}
									}
								}
								JOINT LRingFinger1
								{
									OFFSET 0.0218328 -0.0294254 0.116861
									CHANNELS 3 Zrotation Xrotation Yrotation
									JOINT LRingFinger2
									{
										OFFSET -0.0111863 -0.0236724 0.0119445
										CHANNELS 3 Zrotation Xrotation Yrotation
										JOINT LRingFinger3
										{
											OFFSET -0.00693423 -0.0218744 0.0103359
											CHANNELS 3 Zrotation Xrotation Yrotation
											End Site
											{
												OFFSET 0 0 0
											}
										}
									}
								}
								JOINT LLittleFinger1
								{
									OFFSET 0.0483665 -0.0273308 0.105911
									CHANNELS 3 Zrotation Xrotation Yrotation
									JOINT LLittleFinger2
									{
										OFFSET -0.00524843 -0.0127647 0.0108209
										CHANNELS 3 Zrotation Xrotation Yrotation
										JOINT LLittleFinger3
										{
											OFFSET -0.00810105 -0.0212185 0.00689209
											CHANNELS 3 Zrotation Xrotation Yrotation
											End Site
											{
												OFFSET 0 0 0
											}
										}
									}
								}
								JOINT Axe
								{
									OFFSET -0.159834 -1.12238 -0.352986
									CHANNELS 3 Zrotation Xrotation Yrotation
									End Site
									{
										OFFSET 0 0 0
									}
								}
							}
						}
					}
					JOINT RightUpperArm
					{
						OFFSET -0.160985 -0.12288 0.105519
						CHANNELS 3 Zrotation Xrotation Yrotation
						JOINT RightLowerArm
						{
							OFFSET 0.339494 -0.0218849 0.0107251
							CHANNELS 3 Zrotation Xrotation Yrotation
							JOINT RightHand
							{
								OFFSET 0.225253 -0.000817902 -0.00326025
								CHANNELS 3 Zrotation Xrotation Yrotation
								JOINT RTumb1
								{
									OFFSET 0.051982 0.0041559 0.0537231
									CHANNELS 3 Zrotation Xrotation Yrotation
									JOINT RTumb2
									{
										OFFSET 0.0363757 0.0153742 0.00408185
										CHANNELS 3 Zrotation Xrotation Yrotation
										End Site
										{
											OFFSET 0 0 0
										}
									}
								}
								JOINT RForeFinger1
								{
									OFFSET 0.113836 0.00627727 0.0353073
									CHANNELS 3 Zrotation Xrotation Yrotation
									JOINT RForeFinger2
									{
										OFFSET 0.0279878 0.0124631 -0.00130308
										CHANNELS 3 Zrotation Xrotation Yrotation
										JOINT RForeFinger3
										{
											OFFSET 0.0113282 0.0218013 -0.00210536
											CHANNELS 3 Zrotation Xrotation Yrotation
											End Site
											{
												OFFSET 0 0 0
											}
										}
									}
								}
								JOINT RMiddleFinger1
								{
									OFFSET 0.119932 -0.000319172 0.00888556
									CHANNELS 3 Zrotation Xrotation Yrotation
									JOINT RMiddleFinger2
									{
										OFFSET 0.0277172 0.0175695 -0.000717044
										CHANNELS 3 Zrotation Xrotation Yrotation
										JOINT RMiddleFinger3
										{
											OFFSET 0.0110629 0.0262333 -0.00218683
											CHANNELS 3 Zrotation Xrotation Yrotation
											End Site
											{
												OFFSET 0 0 0
											}
										}
									}
								}
								JOINT RRingFinger1
								{
									OFFSET 0.120676 -0.00470713 -0.0203455
									CHANNELS 3 Zrotation Xrotation Yrotation
									JOINT RRingFinger2
									{
										OFFSET 0.0252958 0.013714 -0.000485361
										CHANNELS 3 Zrotation Xrotation Yrotation
										JOINT RRingFinger3
										{
											OFFSET 0.00675499 0.0242118 -0.00125182
											CHANNELS 3 Zrotation Xrotation Yrotation
											End Site
											{
												OFFSET 0 0 0
											}
										}
									}
								}
								JOINT RLittleFinger1
								{
									OFFSET 0.110196 -0.0118132 -0.0476922
									CHANNELS 3 Zrotation Xrotation Yrotation
									JOINT RLittleFinger2
									{
										OFFSET 0.0156376 0.00773305 0.00180066
										CHANNELS 3 Zrotation Xrotation Yrotation
										JOINT RLittleFinger3
										{
											OFFSET 0.0162803 0.0170717 0.00261974
											CHANNELS 3 Zrotation Xrotation Yrotation
											End Site
											{
												OFFSET 0 0 0
											}
										}
									}
								}
							}
						}
					}
				}
			}
		}
	}
	JOINT _no_name_1
	{
		OFFSET 0 0 0
		CHANNELS 3 Zrotation Xrotation Yrotation
		End Site
		{
			OFFSET 0 0 0
		}
	}
}
MOTION
Frames: 5
Frame Time: 0.050000
0 0 0 0 0 0 -90 -20 4.64555e-007 32.1282 22.1966 88.1621 -35.4697 35.4954 -81.1949 1.01256e-008 5.65064e-008 -4.6344e-008 1.01256e-008 5.65064e-008 -4.6344e-008 1.31782e-006 23.5 -8.47278e-006 3.45563 -4.10105 -99.7709 0.607402 -0.0530396 -9.98116 6.17324e-007 -2.63342e-008 -1.10366e-005 -2.58665 5.21254 -9.43065 -5.01122 6.29384 -29.0709 27.1754 9.10711 -26.8168 -15.6794 -62.946 -19.7762 50.3789 29.1333 93.1789 -78.3985 -53.7675 76.6227 138.299 -29.8815 1.55824 41.6893 1.75365 -58.1799 -8.39885 -6.49946 -13.5907 -4.08294 51.8188 28.0131 0.625355 25.7107 1.80571 56.9987 71.0425 -39.6674 3.22818 57.817 19.9353 -12.0119 -1.09299 -2.24108 36.0071 72.618 -27.0392 15.2501 51.5081 3.97515 -10.9545 2.53281 7.21052 12.3102 38.3268 -11.1017 22.8814 60.3696 -17.7682 -0.258683 -28.9074 12.2922 -5.6416 11.5999 3.06749 2.62872e-007 -1.34862e-005 9.9243e-007 -83.6882 30.4421 57.4896 -5.3252 -40.0759 6.89947 -2.78694 -19.9724 1.00722 -9.98407 6.40129 -21.4447 -1.33441 -3.82333 9.1009 -9.41892 -2.36419 -5.50557 -25.3287 0.0538378 0.337314 -4.95571 0.264968 -0.59779 -14.465 -2.25459 -5.7046 -30.1617 -0.396127 -1.40229 -4.927 0.149293 -0.917418 -15.0604 -4.1296 -1.93198 -30.1478 -0.611718 -2.37861 -4.82594 0.274128 -2.31138 9.23919 -4.44168 7.62034 -15.5783 -3.53662 -0.390293 -29.6553 1.66973 -6.53992 0 0 0 
0 0 0 0 0 0 -90 -20 4.64555e-007 32.1282 22.1966 88.1621 -35.4697 35.4954 -81.1949 1.01256e-008 5.65064e-008 -4.6344e-008 1.01256e-008 5.65064e-008 -4.6344e-008 1.31782e-006 23.5 -8.47278e-006 3.45563 -4.10105 -99.7709 0.607402 -0.0530396 -9.98116 6.17324e-007 -2.63342e-008 -1.10366e-005 -2.58665 5.21254 -9.43065 -5.01122 6.29384 -29.0709 27.1754 9.10711 -26.8168 -15.6794 -62.946 -19.7762 50.3789 29.1333 93.1789 -78.3985 -53.7675 76.6227 138.299 -29.8815 1.55824 31.4652 2.33794 -52.9349 -10.3024 -5.628 -14.7238 -3.39721 39.5836 25.4835 -1.56233 22.542 2.71903 32.1687 61.7007 -19.3515 2.09181 45.5404 20.5002 -11.5987 -0.615837 -1.22723 18.1028 62.4985 -12.2821 12.2566 39.4013 9.92156 -10.9678 2.54039 7.27149 7.3293 30.7817 -8.15084 16.6407 51.5919 -7.12622 -0.132199 -28.9355 12.279 -6.02138 8.0448 3.61638 2.62872e-007 -1.34862e-005 9.9243e-007 -83.6882 30.4421 57.4896 -5.3252 -40.0759 6.89946 -2.78694 -19.9724 1.00722 -9.98407 6.40129 -21.4447 -1.33441 -3.82333 9.10089 -9.41892 -2.36419 -5.50557 -25.3287 0.0538377 0.337315 -4.95571 0.264968 -0.59779 -14.465 -2.25459 -5.7046 -30.1617 -0.396127 -1.40229 -4.927 0.149293 -0.917418 -15.0604 -4.1296 -1.93198 -30.1478 -0.611719 -2.37861 -4.82593 0.274128 -2.31138 9.2392 -4.44168 7.62034 -15.5783 -3.53662 -0.390293 -29.6553 1.66973 -6.53992 0 0 0 
0 0 0 0 0 0 -90 -20 4.64555e-007 32.1282 22.1966 88.1621 -35.4697 35.4954 -81.1949 1.01256e-008 5.65064e-008 -4.6344e-008 1.01256e-008 5.65064e-008 -4.6344e-008 1.31782e-006 23.5 -8.47278e-006 3.45563 -4.10105 -99.7709 0.607402 -0.0530396 -9.98116 6.17324e-007 -2.63342e-008 -1.10366e-005 -2.58665 5.21254 -9.43065 -5.01122 6.29384 -29.0709 27.1754 9.10711 -26.8168 -15.6794 -62.946 -19.7762 50.3789 29.1333 93.1789 -78.3985 -53.7675 76.6227 138.299 -29.8815 1.55824 21.2299 1.9814 -47.6692 -12.1855 -4.71979 -15.8256 -3.40604 27.3392 23.4524 -3.65021 19.3445 3.48437 19.0642 50.3326 -10.9804 1.2836 33.2598 20.6843 -11.1939 -0.131454 -0.216907 9.06663 51.4116 -6.54212 11.0658 27.1566 14.3796 -10.9811 2.54795 7.33246 3.10095 23.0668 -6.11275 13.6311 42.3792 0.534196 -0.00567396 -28.9636 12.2659 -6.36443 4.48635 4.13791 2.62872e-007 -1.34862e-005 9.9243e-007 -83.6882 30.4421 57.4896 -5.3252 -40.0759 6.89946 -2.78694 -19.9724 1.00722 -9.98407 6.40129 -21.4447 -1.33441 -3.82333 9.10089 -9.41892 -2.36419 -5.50557 -25.3287 0.0538377 0.337315 -4.95571 0.264968 -0.59779 -14.465 -2.25459 -5.7046 -30.1617 -0.396127 -1.40229 -4.927 0.149293 -0.917418 -15.0604 -4.1296 -1.93198 -30.1478 -0.611719 -2.37861 -4.82593 0.274128 -2.31138 9.2392 -4.44168 7.62034 -15.5783 -3.53662 -0.390293 -29.6553 1.66973 -6.53992 0 0 0 
0 0 0 0 0 0 -90 -20 4.64555e-007 32.1282 22.1966 88.1621 -35.4697 35.4954 -81.1949 1.01256e-008 5.65064e-008 -4.6344e-008 1.01256e-008 5.65064e-008 -4.6344e-008 1.31782e-006 23.5 -8.47278e-006 3.45563 -4.10105 -99.7709 0.607402 -0.0530396 -9.98116 6.17324e-007 -2.63342e-008 -1.10366e-005 -2.58665 5.21254 -9.43065 -5.01122 6.29384 -29.0709 27.1754 9.10711 -26.8168 -15.6794 -62.946 -19.7762 50.3789 29.1333 93.1789 -78.3985 -53.7675 76.6227 138.299 -29.8815 1.55824 11.0735 0.698429 -42.552 -14.0486 -3.77621 -16.8955 -3.86025 15.1021 21.5817 -5.65641 16.1234 4.11443 10.5173 38.3092 -7.53353 0.601757 20.9783 20.6651 -10.7978 0.359973 0.789985 3.15126 40.0216 -4.15919 10.9495 14.8723 18.2224 -10.9945 2.55551 7.39344 -0.646879 15.2445 -4.76129 12.456 32.9882 6.70752 0.120871 -28.9918 12.2529 -6.67408 0.925005 4.63661 2.62872e-007 -1.34862e-005 9.9243e-007 -83.6882 30.4421 57.4896 -5.3252 -40.0759 6.89946 -2.78694 -19.9724 1.00722 -9.98407 6.40129 -21.4447 -1.33441 -3.82333 9.10089 -9.41892 -2.36419 -5.50557 -25.3287 0.0538377 0.337315 -4.95571 0.264968 -0.59779 -14.465 -2.25459 -5.7046 -30.1617 -0.396127 -1.40229 -4.927 0.149293 -0.917418 -15.0604 -4.1296 -1.93198 -30.1478 -0.611719 -2.37861 -4.82593 0.274128 -2.31138 9.2392 -4.44168 7.62034 -15.5783 -3.53662 -0.390293 -29.6553 1.66973 -6.53992 0 0 0 
0 0 0 0 0 0 -90 -20 4.64555e-007 32.1282 22.1966 88.1621 -35.4697 35.4954 -81.1949 1.01256e-008 5.65064e-008 -4.6344e-008 1.01256e-008 5.65064e-008 -4.6344e-008 1.31782e-006 23.5 -8.47278e-006 3.45563 -4.10105 -99.7709 0.607402 -0.0530396 -9.98116 6.17324e-007 -2.63342e-008 -1.10366e-005 -2.58665 5.21254 -9.43065 -5.01122 6.29384 -29.0709 27.1754 9.10711 -26.8168 -15.6794 -62.946 -19.7762 50.3789 29.1333 93.1789 -78.3985 -53.7675 76.6227 138.299 -29.8815 1.55824 1.06883 -1.46061 -37.7397 -15.8919 -2.79861 -17.9332 -4.69603 2.88551 19.6771 -7.59713 12.8836 4.61938 3.85031 26.0689 -6.52204 -0.0464351 8.69785 20.5003 -10.4103 0.858278 1.79355 -1.46937 28.5287 -3.41759 11.6552 2.60731 21.9154 -11.0078 2.56305 7.45442 -4.107 7.35774 -3.96302 12.483 23.5517 12.1472 0.247442 -29.02 12.2399 -6.953 -2.63885 5.11651 2.62872e-007 -1.34862e-005 9.9243e-007 -83.6882 30.4421 57.4896 -5.3252 -40.0759 6.89946 -2.78694 -19.9724 1.00722 -9.98407 6.40129 -21.4447 -1.33441 -3.82333 9.10089 -9.41892 -2.36419 -5.50557 -25.3287 0.0538377 0.337315 -4.95571 0.264968 -0.59779 -14.465 -2.25459 -5.7046 -30.1617 -0.396127 -1.40229 -4.927 0.149293 -0.917418 -15.0604 -4.1296 -1.93198 -30.1478 -0.611719 -2.37861 -4.82593 0.274128 -2.31138 9.2392 -4.44168 7.62034 -15.5783 -3.53662 -0.390293 -29.6553 1.66973 -6.53992 0 0 0 
